<svg xmlns="http://www.w3.org/2000/svg" viewBox="0 0 430.72 83.15"><defs><style>.cls-1{fill:#4f4999;}</style></defs><g id="Calque_2" data-name="Calque 2"><g id="Calque_1-2" data-name="Calque 1"><path class="cls-1" d="M83.14,14.81V68.35s-.11.06-.11.1A14.25,14.25,0,0,1,82.67,70a11.31,11.31,0,0,1-.76,2.21,18.44,18.44,0,0,1-1.17,2.25,16.62,16.62,0,0,1-2.06,2.79A17.75,17.75,0,0,1,68.47,83a.15.15,0,0,0-.13.14H14.8c0-.13-.11-.15-.21-.15a5.73,5.73,0,0,1-1.69-.36,17.18,17.18,0,0,1-2.47-.94,18.28,18.28,0,0,1-4.34-2.82A18.52,18.52,0,0,1,1.7,73.22,16.72,16.72,0,0,1,.63,70.55c-.12-.43-.24-.87-.34-1.31A6.25,6.25,0,0,1,0,67.7Q0,41.51,0,15.33a4.78,4.78,0,0,1,.2-1.2c.18-.66.36-1.33.59-2A17.83,17.83,0,0,1,2.51,8.5,18.21,18.21,0,0,1,6.5,4a17.35,17.35,0,0,1,4.82-2.84,20.22,20.22,0,0,1,2-.67A9,9,0,0,1,15.56,0h50a14,14,0,0,1,3,.12c.56.12,1.14.23,1.68.39a16.22,16.22,0,0,1,2.85,1.12,18.6,18.6,0,0,1,7.68,7.11A16.27,16.27,0,0,1,83,14.65C83,14.73,83,14.81,83.14,14.81ZM43.66,21.6a10,10,0,0,0-4.59,3,11.82,11.82,0,0,0-2.36,10,21.14,21.14,0,0,0,1.65,4.76,7.66,7.66,0,0,1,.73,4.11,3.63,3.63,0,0,1-3,3.26,3.47,3.47,0,0,1-4-2.26,6.2,6.2,0,0,1,.24-5.14c.13-.28.34-.54.12-.92a14.39,14.39,0,0,0-5.59,13.87,14,14,0,0,0,5.43,9.28,2.6,2.6,0,0,0-.09-1.13,1.78,1.78,0,0,1,.74-2,1.81,1.81,0,0,1,2.24.13c.24.18.47.39.7.59a1.17,1.17,0,0,0,1.55.15,3.38,3.38,0,0,0,.89-.75,12,12,0,0,0,1.23-1.67c.9-1.44,1.66-3,2.54-4.42A7.69,7.69,0,0,1,43.16,51c.54-.53.92-.45,1.2.26a6,6,0,0,1,.3,1.25,13,13,0,0,0,.89,3.35c.54,1.16,1.19,1.22,1.93.17.32-.45.56-1,.87-1.41a2.52,2.52,0,0,1,2.49-1.18,2.22,2.22,0,0,1,1.92,1.82,3.08,3.08,0,0,1,.12.86,8.54,8.54,0,0,1-.54,2.54c-.17.54-.35,1.07-.53,1.62a5.79,5.79,0,0,0,2.51-2.78,14.42,14.42,0,0,0,1.56-11.43A21.5,21.5,0,0,0,51,37.65c-1.92-2.15-3.94-4.21-5.89-6.33a8.4,8.4,0,0,1-2.19-7A18.51,18.51,0,0,1,43.66,21.6Z"/><path class="cls-1" d="M430.72,60.42h-.07c0-.31,0-.63,0-.94q0-7.29,0-14.59c0-.16,0-.32,0-.47a0,0,0,0,1,.06,0Z"/><path class="cls-1" d="M343,42.81l-1.17,1.08c-1.74,1.6-3.48,3.2-5.37,4.62a9.33,9.33,0,0,1-1,.66c-.27.16-.62.46-.88.23s0-.63.14-.93a13.31,13.31,0,0,1,1-1.75c2.07-3.1,4.4-6,6.76-8.87,1.51-1.84,3.05-3.65,4.7-5.36a12.24,12.24,0,0,1,7.1-3.61,13.53,13.53,0,0,1,9.63,2,12.85,12.85,0,0,1,3.21,2.9c.19.24.27.24.47,0a13.65,13.65,0,0,1,8-4.79A13.4,13.4,0,0,1,391.5,39.42a13.62,13.62,0,0,1,.32,3c0,5.48,0,11,0,16.45a2.75,2.75,0,0,1-5.49.46c0-.15,0-.31,0-.47,0-5.49,0-11,0-16.49a7.8,7.8,0,0,0-2.27-5.66,7.7,7.7,0,0,0-7.9-2.16,7.79,7.79,0,0,0-5.73,6,7.71,7.71,0,0,0-.2,1.91V59a2.8,2.8,0,0,1-5,1.8,2.75,2.75,0,0,1-.64-1.85V42.43a8,8,0,0,0-16-1.15c0,.44-.07.88-.07,1.32q0,8.19,0,16.37a2.79,2.79,0,0,1-2.77,2.85A2.75,2.75,0,0,1,343,59.07c0-1.46,0-2.93,0-4.39V42.81Z"/><path class="cls-1" d="M430.66,44.43c0,.15,0,.31,0,.47q0,7.29,0,14.59c0,.31,0,.63,0,.94a16,16,0,0,1-6.9,12.34A16.55,16.55,0,0,1,399.46,67a4.87,4.87,0,0,1-.67-1.73,2.76,2.76,0,0,1,1.94-2.95A2.7,2.7,0,0,1,404,63.65a12.1,12.1,0,0,0,2.37,3.46,11,11,0,0,0,18.79-7.94c0-.47,0-.94,0-1.41,0,0,0,0-.05-.11-.15.13-.3.24-.45.36a16.58,16.58,0,0,1-21.76-.62,16.24,16.24,0,0,1-5.32-12.23c0-4.56,0-9.11,0-13.67a2.73,2.73,0,0,1,2.5-2.78A2.76,2.76,0,0,1,403,30.86a3.35,3.35,0,0,1,.05.7V44.84a10.75,10.75,0,0,0,3,7.74,10.59,10.59,0,0,0,9,3.39A11,11,0,0,0,425,46.86a8.91,8.91,0,0,0,.15-1.71c0-4.55,0-9.09,0-13.63A2.65,2.65,0,0,1,426.59,29a2.7,2.7,0,0,1,2.83.15,2.62,2.62,0,0,1,1.22,2.32Q430.64,37.94,430.66,44.43Z"/><path class="cls-1" d="M238.28,48H226.36c-.46,0-.46,0-.33.44a11,11,0,0,0,9.7,7.73,14.59,14.59,0,0,0,9.71-2.59,2.83,2.83,0,0,1,4,.75,2.68,2.68,0,0,1-.74,3.79,19.85,19.85,0,0,1-9.61,3.53,17.16,17.16,0,0,1-9.15-1.29,16.18,16.18,0,0,1-9.67-12.71,16.38,16.38,0,0,1,12.65-18.55A16.07,16.07,0,0,1,248,33.22a15.68,15.68,0,0,1,5,9.69c.1.69.09,1.38.13,2.07A2.87,2.87,0,0,1,250,48C246.12,48,242.2,48,238.28,48Zm-12.37-5.57.29,0h20.7c.27,0,.35,0,.26-.34a11.06,11.06,0,0,0-10-7.88,10.9,10.9,0,0,0-9.27,4.26A10.24,10.24,0,0,0,225.91,42.46Z"/><path class="cls-1" d="M316.37,40.76H304.29c-.36,0-.41.08-.3.4a10.69,10.69,0,0,0,8.78,7.66,14.09,14.09,0,0,0,10.71-2.48,2.79,2.79,0,0,1,3.88.68,2.67,2.67,0,0,1-.64,3.8,19.78,19.78,0,0,1-9.85,3.59A17.06,17.06,0,0,1,307.73,53a16.18,16.18,0,0,1-9.54-12.92,16.54,16.54,0,0,1,32.52-5.89,15.49,15.49,0,0,1,.42,3.84,2.74,2.74,0,0,1-2.73,2.71Zm8.85-5.58c0-.09,0-.16,0-.22A11.08,11.08,0,0,0,313.25,27,11,11,0,0,0,304,34.72c-.14.46-.14.46.34.46h20.87Z"/><path class="cls-1" d="M174.23,48h-12c-.46,0-.48,0-.33.44a10.68,10.68,0,0,0,9,7.64,14.14,14.14,0,0,0,10.48-2.49,2.82,2.82,0,0,1,3.94.74,2.66,2.66,0,0,1-.74,3.81A20.3,20.3,0,0,1,173,61.77a16.52,16.52,0,0,1-16.91-14.36,16.38,16.38,0,0,1,11.27-17.88A16.55,16.55,0,0,1,189,45.15,2.75,2.75,0,0,1,186.14,48Zm8.84-5.53c0-.09,0-.15,0-.21a11,11,0,0,0-12.37-7.87A10.69,10.69,0,0,0,161.9,42c-.15.45-.14.46.33.46h20.84Z"/><path class="cls-1" d="M125.43,32.85c.51-.4,1-.77,1.43-1.11a15.81,15.81,0,0,1,10.9-3c6.83.61,11.63,4.21,14.07,10.52,2.51,6.47,1.16,12.41-3.56,17.51a15.07,15.07,0,0,1-8.72,4.74A16.69,16.69,0,0,1,120.14,48.3a13.82,13.82,0,0,1-.24-2.49V23.29a2.77,2.77,0,1,1,5.53,0c0,3,0,6.06,0,9.09Zm0,12.39a11,11,0,1,0,11.3-11A11.05,11.05,0,0,0,125.4,45.24Z"/><path class="cls-1" d="M271.33,52.92,275,45.63q3.81-7.6,7.61-15.2a2.77,2.77,0,0,1,4.8-.42,2.68,2.68,0,0,1,.17,2.89c-1.89,3.75-3.76,7.5-5.65,11.25l-8,16a2.69,2.69,0,0,1-2.53,1.67,2.78,2.78,0,0,1-2.61-1.68q-5.81-11.68-11.64-23.37c-.66-1.32-1.29-2.65-2-4a2.74,2.74,0,0,1,1.15-3.75,2.77,2.77,0,0,1,3.79,1.28l6.05,12.1,5,10C271.18,52.64,271.25,52.75,271.33,52.92Z"/><path class="cls-1" d="M305.92,11.7a12.05,12.05,0,0,0,1-4.31c0-.88.37-1.11,1.16-.71a12.72,12.72,0,0,1,3.31,2.47,10.34,10.34,0,0,1,2.94,5.62,4.63,4.63,0,0,1-4.14,5.38,1.45,1.45,0,0,1-.35,0c-.76-.2-1.2.23-1.72.71a4.41,4.41,0,0,1-3.37,1.21.46.46,0,0,0-.47.24,4.52,4.52,0,0,1-2.51,1.95.33.33,0,0,0-.26.33,4.75,4.75,0,0,1-6,4,6.07,6.07,0,0,1-3.11-2.3c-.63-.75-1.24-1.52-1.88-2.25a8.19,8.19,0,0,0-1.89-1.58l-.2-.12c-.71-.46-.73-.93,0-1.38a12.73,12.73,0,0,1,5.57-1.91l.73-.07a9.08,9.08,0,0,0-1.78-2.9,4.06,4.06,0,0,1-.42-.51c-.26-.39-.17-.68.28-.87a7.78,7.78,0,0,1,2.13-.5,13,13,0,0,1,5,.29c.23.06.29,0,.29-.23a10.15,10.15,0,0,0-.54-3.58,1.47,1.47,0,0,1-.08-.3c-.1-.5.09-.76.61-.74a9.94,9.94,0,0,1,3,.68A15.41,15.41,0,0,1,305.92,11.7Z"/><path class="cls-1" d="M200,41.16c0,5.92,0,11.83,0,17.74a2.85,2.85,0,0,1-2.66,2.92A2.81,2.81,0,0,1,194.48,59a1.92,1.92,0,0,1,0-.24V23.49a2.81,2.81,0,0,1,2.1-3A2.74,2.74,0,0,1,200,23.19Z"/><path class="cls-1" d="M214.22,45.23q0,6.9,0,13.78a2.76,2.76,0,1,1-5.51,0V31.44a2.71,2.71,0,0,1,2.77-2.74,2.66,2.66,0,0,1,2.74,2.71Q214.23,38.33,214.22,45.23Z"/><path class="cls-1" d="M206.73,22.58A6.34,6.34,0,0,1,208,19a21.91,21.91,0,0,0,2-3.56,9.24,9.24,0,0,0,.37-1.27c.22-.89.59-1,1.31-.43a13,13,0,0,1,2.65,3,10.39,10.39,0,0,1,1.76,6,4.62,4.62,0,0,1-4.23,4.62,4.71,4.71,0,0,1-5.15-4C206.74,23.1,206.74,22.84,206.73,22.58Z"/></g></g></svg>